<?xml version="1.0" standalone="no"?>
<!DOCTYPE svg PUBLIC "-//W3C//DTD SVG 20010904//EN"
 "http://www.w3.org/TR/2001/REC-SVG-20010904/DTD/svg10.dtd">
<svg version="1.0" xmlns="http://www.w3.org/2000/svg"
 width="1449.000000pt" height="1449.000000pt" viewBox="0 0 1449.000000 1449.000000"
 preserveAspectRatio="xMidYMid meet">
<metadata>
Created by potrace 1.11, written by Peter Selinger 2001-2013
</metadata>
<g transform="translate(0.000000,1449.000000) scale(0.100000,-0.100000)"
fill="#000000" stroke="none">
<path d="M3082 12764 l-1732 -1726 0 -5519 0 -5519 5884 0 5885 0 0 7245 0
7245 -4153 0 -4153 0 -1731 -1726z m9348 -5519 l0 -6555 -5193 0 -5193 0 0
5175 0 5175 1386 0 1385 0 -1 1373 c0 754 1 1375 3 1380 2 4 1716 7 3809 7
l3804 0 0 -6555z"/>
<path d="M3957 9648 c-72 -19 -146 -119 -172 -232 -18 -76 -11 -190 16 -261
27 -73 105 -155 164 -173 31 -9 572 -11 2430 -9 l2390 2 40 22 c151 81 208
327 118 508 -33 67 -68 103 -128 131 l-50 24 -2385 -1 c-1562 -1 -2398 -4
-2423 -11z"/>
<path d="M3984 7237 c-27 -5 -64 -20 -82 -34 -41 -31 -96 -115 -107 -163 -5
-19 -10 -42 -12 -50 -11 -42 -9 -151 3 -198 28 -105 75 -171 155 -214 l44 -23
3600 0 3600 0 42 22 c151 81 209 341 118 523 -29 56 -67 93 -125 119 -44 20
-64 20 -860 21 -4567 5 -6335 4 -6376 -3z"/>
<path d="M6137 4834 c-1 -1 -490 -4 -1087 -7 -663 -3 -1095 -9 -1110 -15 -58
-23 -137 -133 -156 -217 -3 -16 -7 -64 -8 -105 -5 -170 82 -311 207 -340 69
-15 6202 -14 6248 1 86 29 164 124 185 224 15 75 12 187 -7 244 -33 94 -67
139 -139 184 l-35 22 -1155 2 c-635 2 -1557 4 -2048 5 -492 2 -894 2 -895 2z"/>
</g>
</svg>
