<?xml version="1.0" encoding="UTF-8" ?>
<!DOCTYPE svg PUBLIC "-//W3C//DTD SVG 1.1//EN" "http://www.w3.org/Graphics/SVG/1.1/DTD/svg11.dtd">
<svg width="225pt" height="503pt" viewBox="0 0 225 503" version="1.1" xmlns="http://www.w3.org/2000/svg">
<g id="#b7b7b7ff">
<path fill="#b7b7b7" opacity="1.00" d=" M 51.50 0.00 L 51.98 0.00 C 55.97 4.71 60.15 9.26 64.12 13.99 C 50.95 29.16 37.71 44.27 24.52 59.42 C 37.64 74.65 50.99 89.69 64.11 104.93 C 60.10 109.62 56.01 114.24 51.93 118.88 C 35.50 100.07 19.06 81.27 2.62 62.47 C 1.75 61.57 1.05 60.47 0.00 59.78 L 0.00 58.39 C 0.19 58.43 0.57 58.52 0.76 58.56 C 17.74 39.24 34.51 19.73 51.63 0.53 L 51.50 0.00 Z" />
<path fill="#b7b7b7" opacity="1.00" d=" M 172.10 0.00 L 173.03 0.00 C 190.37 19.80 207.69 39.62 225.00 59.45 L 225.00 59.54 C 207.61 79.25 190.38 99.10 173.07 118.88 C 168.98 114.24 164.89 109.62 160.88 104.91 C 174.03 89.71 187.35 74.64 200.48 59.43 C 187.30 44.27 174.05 29.17 160.89 14.00 C 164.82 9.34 168.85 4.75 172.95 0.23 L 172.10 0.00 Z" />
</g>
<g id="#3ec9d9ff">
<path fill="#3ec9d9" opacity="1.00" d=" M 2.63 248.45 C 19.10 229.68 35.49 210.84 51.95 192.07 C 56.01 196.72 60.11 201.33 64.12 206.02 C 50.96 221.20 37.74 236.34 24.49 251.45 C 37.63 266.69 50.99 281.74 64.11 297.00 C 60.10 301.68 56.01 306.29 51.95 310.93 C 34.99 291.59 18.11 272.17 1.13 252.84 C 0.85 252.55 0.28 251.96 0.00 251.67 L 0.00 251.31 C 1.27 251.37 1.43 249.01 2.63 248.45 Z" />
<path fill="#3ec9d9" opacity="1.00" d=" M 160.87 206.03 C 164.88 201.35 168.97 196.73 173.04 192.08 C 190.04 211.42 206.92 230.86 223.91 250.21 C 224.18 250.49 224.73 251.05 225.00 251.33 L 225.00 251.69 C 223.75 251.60 223.63 253.98 222.40 254.51 C 205.92 273.29 189.53 292.15 173.04 310.92 C 168.97 306.27 164.88 301.65 160.87 296.97 C 174.07 281.83 187.21 266.65 200.50 251.59 C 187.40 236.32 174.03 221.26 160.87 206.03 Z" />
</g>
<g id="#249dabff">
<path fill="#249dab" opacity="1.00" d=" M 0.00 443.49 C 17.36 423.74 34.63 403.91 51.93 384.12 C 56.00 388.76 60.11 393.36 64.10 398.07 C 50.99 413.31 37.65 428.36 24.51 443.58 C 37.71 458.74 50.96 473.85 64.13 489.03 C 60.15 493.61 56.21 498.24 52.08 502.70 L 52.86 503.00 L 51.98 503.00 C 34.63 483.20 17.29 463.38 0.00 443.53 L 0.00 443.49 Z" />
<path fill="#249dab" opacity="1.00" d=" M 160.88 398.09 C 164.88 393.38 168.99 388.77 173.07 384.12 C 190.41 403.78 207.41 423.83 225.00 443.23 L 225.00 443.69 C 224.72 443.98 224.16 444.55 223.88 444.84 C 206.96 464.24 189.98 483.59 173.06 503.00 L 173.02 503.00 C 169.01 498.31 164.88 493.73 160.87 489.03 C 174.03 473.85 187.29 458.75 200.47 443.58 C 187.35 428.36 174.03 413.29 160.88 398.09 Z" />
</g>
</svg>
