<?xml version="1.0" encoding="UTF-8" ?>
<!DOCTYPE svg PUBLIC "-//W3C//DTD SVG 1.1//EN" "http://www.w3.org/Graphics/SVG/1.1/DTD/svg11.dtd">
<svg width="505pt" height="596pt" viewBox="0 0 505 596" version="1.1" xmlns="http://www.w3.org/2000/svg">
<g id="#ffffffff">
<path fill="#ffffff" opacity="1.00" d=" M 270.77 0.00 L 275.81 0.00 C 296.30 0.65 315.88 12.14 326.74 29.48 C 340.29 21.75 356.75 19.30 371.94 22.93 C 389.18 26.88 404.37 38.59 412.84 54.08 C 418.74 64.58 421.28 76.75 420.83 88.74 C 437.02 82.99 455.55 84.16 470.75 92.23 C 491.38 102.79 505.05 125.31 505.00 148.48 L 505.00 426.53 C 504.16 460.22 493.52 493.63 474.31 521.35 C 455.94 548.03 430.02 569.53 400.21 582.28 C 379.95 591.02 357.96 595.62 335.91 596.00 L 295.68 596.00 C 257.83 595.61 220.24 582.03 191.03 557.93 C 133.61 500.72 76.29 443.40 18.92 386.14 C 7.12 374.50 0.19 358.17 0.00 341.60 L 0.00 338.09 C 0.71 318.95 10.35 300.25 25.96 289.04 C 49.08 272.19 83.72 273.64 105.05 292.86 C 112.28 299.76 119.13 307.04 126.23 314.08 C 126.25 245.08 126.22 176.09 126.24 107.09 C 126.17 96.52 128.64 85.93 133.59 76.58 C 140.99 62.38 153.92 51.12 169.10 45.96 C 183.12 41.07 198.85 41.55 212.64 47.03 C 215.84 35.31 222.36 24.47 231.44 16.37 C 242.08 6.49 256.30 0.74 270.77 0.00 M 265.21 44.32 C 257.56 47.57 252.33 55.69 252.53 64.00 C 252.53 127.80 252.53 191.60 252.52 255.40 C 238.49 255.40 224.46 255.39 210.42 255.40 C 210.40 207.59 210.42 159.78 210.41 111.98 C 210.38 109.01 210.56 106.02 210.14 103.08 C 209.06 95.58 203.58 88.91 196.44 86.39 C 189.86 83.94 182.07 85.18 176.58 89.55 C 171.29 93.60 168.16 100.25 168.35 106.91 C 168.36 210.24 168.35 313.57 168.35 416.89 C 138.31 386.54 108.30 356.15 78.26 325.79 C 70.61 317.60 56.30 317.40 48.41 325.36 C 41.63 331.84 40.11 342.95 44.81 351.05 C 46.54 354.26 49.34 356.64 51.86 359.21 C 106.88 414.16 161.93 469.09 216.94 524.05 C 219.71 527.04 223.17 529.25 226.49 531.56 C 243.32 542.95 262.89 550.28 283.09 552.56 C 294.01 553.87 305.02 553.26 315.98 553.40 C 327.31 553.25 338.70 553.95 349.95 552.32 C 371.16 549.64 391.58 541.40 408.84 528.80 C 437.56 508.07 457.20 475.23 461.71 440.07 C 463.33 428.80 462.87 417.39 462.94 406.04 C 462.92 320.36 462.97 234.67 462.92 148.99 C 463.17 137.79 453.31 127.51 442.03 127.72 C 430.63 127.33 420.54 137.71 420.83 149.04 C 420.81 184.49 420.83 219.94 420.82 255.40 C 406.80 255.40 392.79 255.40 378.77 255.40 C 378.75 198.61 378.78 141.82 378.75 85.03 C 378.75 77.67 374.68 70.46 368.30 66.76 C 362.07 62.99 353.83 62.91 347.51 66.53 C 340.94 70.16 336.67 77.48 336.67 84.98 C 336.62 134.70 336.66 184.41 336.65 234.13 C 322.63 234.13 308.61 234.14 294.59 234.13 C 294.58 177.41 294.60 120.70 294.58 63.98 C 294.65 57.37 291.46 50.81 286.16 46.84 C 280.31 42.29 271.97 41.29 265.21 44.32 Z" />
</g>
</svg>
