<?xml version="1.0" encoding="UTF-8" ?>
<!DOCTYPE svg PUBLIC "-//W3C//DTD SVG 1.1//EN" "http://www.w3.org/Graphics/SVG/1.1/DTD/svg11.dtd">
<svg width="383pt" height="392pt" viewBox="0 0 383 392" version="1.1" xmlns="http://www.w3.org/2000/svg">
<g id="#ffffffff">
<path fill="#ffffff" opacity="1.00" d=" M 165.08 2.68 C 200.34 -3.17 237.13 0.93 270.24 14.40 C 225.67 5.63 178.08 14.66 139.45 38.43 C 111.97 55.25 89.13 79.51 73.90 107.90 C 56.82 139.51 49.32 176.25 52.99 212.02 C 56.33 245.65 69.30 278.27 90.05 304.96 C 113.24 335.06 145.98 357.64 182.29 368.81 C 215.79 379.24 252.28 379.61 286.02 370.00 C 263.61 381.43 238.96 388.36 213.90 390.51 C 180.85 393.42 147.10 387.68 116.84 374.09 C 82.47 358.77 52.55 333.53 31.90 302.05 C 12.45 272.62 1.49 237.81 0.00 202.60 L 0.00 189.04 C 1.70 135.70 26.65 83.75 66.86 48.74 C 94.42 24.57 128.92 8.53 165.08 2.68 Z" />
<path fill="#ffffff" opacity="1.00" d=" M 165.10 67.37 C 191.32 52.65 222.18 46.42 252.07 49.71 C 282.71 52.99 312.11 66.38 334.87 87.12 C 357.14 107.23 373.00 134.39 379.17 163.79 C 386.05 195.14 381.90 228.74 367.66 257.50 C 354.93 283.59 334.22 305.74 308.90 319.98 C 269.31 342.48 218.75 345.82 177.30 326.38 C 219.37 333.46 264.47 317.77 293.76 286.80 C 314.26 265.26 327.35 236.69 329.90 207.03 C 332.40 179.03 325.54 150.27 310.62 126.44 C 292.79 97.63 263.62 76.14 230.86 67.55 C 209.43 61.76 186.57 61.75 165.10 67.37 Z" />
<path fill="#ffffff" opacity="1.00" d=" M 175.25 120.75 C 192.23 120.75 209.21 120.75 226.19 120.75 C 226.19 136.75 226.19 152.75 226.19 168.75 C 242.31 168.74 258.42 168.76 274.54 168.74 C 274.59 185.62 274.55 202.50 274.56 219.38 C 258.44 219.37 242.31 219.38 226.19 219.37 C 226.18 235.37 226.19 251.37 226.19 267.38 C 209.21 267.38 192.23 267.37 175.25 267.38 C 175.25 251.39 175.23 235.39 175.26 219.40 C 159.13 219.34 143.00 219.40 126.88 219.38 C 126.87 202.50 126.87 185.63 126.88 168.75 C 143.00 168.74 159.13 168.76 175.25 168.74 C 175.24 152.74 175.24 136.74 175.25 120.75 Z" />
</g>
</svg>
