<?xml version="1.0" encoding="UTF-8" ?>
<!DOCTYPE svg PUBLIC "-//W3C//DTD SVG 1.1//EN" "http://www.w3.org/Graphics/SVG/1.1/DTD/svg11.dtd">
<svg width="320pt" height="458pt" viewBox="0 0 320 458" version="1.1" xmlns="http://www.w3.org/2000/svg">
<g id="#ffffffff">
<path fill="#ffffff" opacity="1.00" d=" M 140.22 4.28 C 150.05 -0.67 162.11 -0.84 172.09 3.80 C 181.20 7.96 188.46 15.90 191.87 25.31 C 195.58 35.32 194.86 46.82 190.03 56.33 C 201.01 56.31 211.99 56.28 222.97 56.33 C 230.88 56.21 238.47 61.21 241.62 68.44 C 244.34 74.23 243.22 80.77 243.44 86.94 C 258.30 86.95 273.17 86.91 288.03 86.95 C 294.52 86.90 301.02 88.86 306.28 92.69 C 314.35 98.38 319.32 108.12 319.30 117.99 C 319.32 220.67 319.32 323.34 319.31 426.02 C 319.45 438.14 311.85 449.95 300.65 454.66 C 294.82 457.37 288.28 457.28 282.00 457.19 C 198.67 457.19 115.34 457.18 32.01 457.19 C 26.61 457.27 21.16 456.20 16.40 453.59 C 6.73 448.56 0.37 438.09 0.00 427.24 L 0.00 117.18 C 0.26 107.90 4.83 98.81 12.27 93.21 C 17.59 89.10 24.31 86.92 31.03 86.95 C 46.00 86.91 60.97 86.95 75.94 86.94 C 76.17 80.62 74.98 73.87 77.95 68.00 C 81.14 61.09 88.45 56.32 96.09 56.34 C 105.15 56.26 114.22 56.33 123.28 56.32 C 120.37 50.30 118.80 43.61 119.14 36.91 C 119.58 23.28 127.95 10.26 140.22 4.28 M 134.65 35.07 C 133.24 43.03 136.77 51.20 142.74 56.44 C 152.01 56.44 161.27 56.42 170.54 56.45 C 177.01 50.90 180.52 41.85 178.37 33.44 C 176.20 23.32 166.37 15.42 155.95 15.93 C 145.44 16.09 136.09 24.74 134.65 35.07 M 41.25 120.27 C 34.71 123.49 30.45 130.70 30.75 137.98 C 30.78 228.00 30.72 318.02 30.78 408.03 C 30.83 418.06 39.96 426.89 50.01 426.49 C 123.34 426.49 196.66 426.53 269.99 426.47 C 280.18 426.55 288.93 417.11 288.50 407.00 C 288.49 317.02 288.52 227.04 288.48 137.05 C 288.55 127.52 280.47 118.74 270.89 118.33 C 261.76 118.13 252.63 118.32 243.50 118.24 C 243.47 126.12 236.89 133.45 228.87 133.52 C 182.93 133.61 136.99 133.56 91.05 133.55 C 82.76 133.82 75.75 126.36 75.72 118.23 C 67.45 118.28 59.18 118.24 50.91 118.25 C 47.60 118.19 44.22 118.73 41.25 120.27 Z" />
<path fill="#ffffff" opacity="1.00" d=" M 79.41 161.64 C 93.01 156.94 108.99 165.55 112.90 179.30 C 117.75 193.46 108.64 210.42 93.99 213.81 C 80.54 217.63 65.46 208.78 61.83 195.38 C 57.37 181.78 65.64 165.68 79.41 161.64 Z" />
<path fill="#ffffff" opacity="1.00" d=" M 146.32 172.46 C 176.90 172.10 207.50 172.42 238.08 172.30 C 242.74 172.08 247.55 173.78 250.64 177.35 C 255.22 182.31 255.87 190.37 252.16 196.00 C 249.40 200.42 244.25 203.12 239.06 202.99 C 208.67 202.99 178.28 203.04 147.89 202.97 C 139.99 203.02 133.02 195.96 133.05 188.08 C 132.66 180.49 138.73 173.24 146.32 172.46 Z" />
<path fill="#ffffff" opacity="1.00" d=" M 79.32 238.58 C 92.71 233.89 108.50 242.14 112.68 255.59 C 117.70 269.18 109.82 285.82 95.94 290.21 C 82.64 295.11 66.69 287.16 62.29 273.78 C 56.91 259.95 65.05 242.81 79.32 238.58 Z" />
<path fill="#ffffff" opacity="1.00" d=" M 143.38 249.64 C 146.12 248.64 149.08 248.82 151.95 248.80 C 180.99 248.83 210.03 248.79 239.06 248.82 C 244.27 248.68 249.37 251.51 252.10 255.92 C 255.39 261.00 255.40 267.99 252.05 273.04 C 249.30 277.42 244.20 280.20 239.01 280.06 C 209.02 280.07 179.03 280.06 149.03 280.06 C 143.79 280.31 138.57 277.64 135.71 273.25 C 129.97 265.27 133.97 252.65 143.38 249.64 Z" />
<path fill="#ffffff" opacity="1.00" d=" M 79.43 320.77 C 92.13 316.44 107.11 323.56 111.99 335.99 C 117.57 348.49 112.02 364.60 99.76 370.79 C 90.32 375.91 77.84 374.43 69.89 367.20 C 61.51 360.00 58.45 347.49 62.36 337.19 C 65.13 329.48 71.60 323.20 79.43 320.77 Z" />
<path fill="#ffffff" opacity="1.00" d=" M 143.49 331.75 C 145.57 330.99 147.82 330.94 150.02 330.93 C 179.69 330.96 209.35 330.91 239.02 330.95 C 247.55 330.60 255.01 338.53 254.57 346.97 C 254.60 355.14 247.31 362.63 239.03 362.25 C 208.69 362.24 178.34 362.28 148.00 362.23 C 140.36 362.28 133.67 355.64 133.12 348.13 C 132.32 341.15 136.80 333.97 143.49 331.75 Z" />
</g>
</svg>
