<?xml version="1.0" encoding="UTF-8" ?>
<!DOCTYPE svg PUBLIC "-//W3C//DTD SVG 1.1//EN" "http://www.w3.org/Graphics/SVG/1.1/DTD/svg11.dtd">
<svg width="278pt" height="696pt" viewBox="0 0 278 696" version="1.1" xmlns="http://www.w3.org/2000/svg">
<g id="#ffffffff">
<path fill="#ffffff" opacity="1.00" d=" M 124.48 1.86 C 139.36 -1.13 155.17 0.59 168.97 6.93 C 183.94 13.71 196.44 25.77 203.72 40.51 C 210.70 54.47 212.84 70.75 209.87 86.06 C 207.21 100.05 200.19 113.16 190.10 123.19 C 178.89 134.46 163.87 141.84 148.10 143.77 C 132.43 145.79 116.12 142.57 102.48 134.58 C 89.58 127.13 79.10 115.58 72.97 102.00 C 65.28 85.20 64.53 65.39 70.84 48.03 C 79.07 24.69 100.18 6.54 124.48 1.86 Z" />
<path fill="#ffffff" opacity="1.00" d=" M 103.24 154.12 C 108.93 151.31 114.92 149.09 121.08 147.57 C 126.90 153.65 132.71 159.73 138.53 165.81 C 144.54 159.80 150.48 153.72 156.54 147.77 C 162.75 149.41 168.75 151.73 174.50 154.60 C 172.95 170.71 167.81 186.88 157.77 199.75 C 152.93 205.73 146.16 211.55 137.99 211.17 C 129.84 210.51 123.49 204.39 118.78 198.20 C 109.48 185.41 104.63 169.77 103.24 154.12 Z" />
<path fill="#ffffff" opacity="1.00" d=" M 184.57 158.75 C 206.42 171.94 227.14 187.79 242.74 208.21 C 255.34 224.54 264.36 243.50 269.81 263.36 C 279.06 297.04 279.16 332.52 275.68 367.06 C 274.47 378.10 265.82 387.43 255.25 390.38 C 255.26 399.37 255.25 408.37 255.25 417.37 C 260.61 417.37 265.96 417.37 271.31 417.38 C 271.31 464.60 271.31 511.83 271.31 559.06 C 255.08 559.06 238.85 559.06 222.62 559.06 C 222.62 511.83 222.62 464.60 222.62 417.38 C 227.95 417.37 233.29 417.37 238.62 417.37 C 238.62 408.19 238.63 399.01 238.62 389.83 C 227.24 385.87 218.96 374.22 219.83 362.07 C 222.73 330.68 223.58 297.96 212.52 267.93 C 212.46 303.30 212.55 338.66 212.47 374.03 C 212.25 381.41 212.69 389.80 207.15 395.54 C 207.05 484.01 207.05 572.49 207.07 660.97 C 207.11 665.92 206.32 670.92 204.32 675.47 C 199.18 688.10 185.42 696.36 171.86 694.94 C 155.48 693.92 140.93 679.56 140.74 662.96 C 140.57 586.21 140.83 509.47 140.75 432.72 C 139.19 432.65 137.63 432.58 136.07 432.52 C 136.06 507.01 136.06 581.50 136.07 655.99 C 136.13 661.82 136.25 667.83 134.15 673.37 C 129.77 686.71 115.94 696.04 101.92 695.01 C 84.78 694.53 69.39 679.32 69.72 661.97 C 69.63 573.22 69.74 484.47 69.66 395.71 C 64.06 390.70 64.79 382.77 64.58 375.97 C 64.53 340.55 64.59 305.12 64.55 269.69 C 53.97 300.26 55.20 333.27 58.06 365.03 C 58.93 379.19 47.27 392.51 33.18 393.74 C 19.04 395.70 4.62 385.11 2.42 370.99 C 0.93 359.42 0.45 347.74 0.00 336.08 L 0.00 323.55 C 0.28 311.84 1.04 300.13 2.76 288.53 C 6.87 259.65 17.05 231.17 35.13 208.04 C 50.74 187.93 71.24 172.04 93.25 159.52 C 95.16 173.66 99.52 187.62 107.11 199.78 C 113.01 209.23 121.48 217.86 132.53 220.84 C 130.77 230.45 132.00 240.98 138.05 248.94 C 142.70 255.84 151.02 260.96 151.82 269.92 C 152.35 280.78 146.31 290.47 141.07 299.53 C 132.83 298.11 124.61 305.64 125.89 314.02 C 126.58 322.79 137.30 328.43 144.94 324.05 C 151.83 320.73 153.93 311.44 149.85 305.15 C 156.17 294.13 163.08 282.22 162.30 269.06 C 161.63 258.90 153.89 251.62 147.67 244.36 C 142.13 238.09 141.41 229.20 143.12 221.32 C 152.50 219.58 160.41 213.47 166.20 206.12 C 176.81 192.57 182.41 175.67 184.57 158.75 Z" />
</g>
</svg>
