<?xml version="1.0" encoding="UTF-8" ?>
<!DOCTYPE svg PUBLIC "-//W3C//DTD SVG 1.1//EN" "http://www.w3.org/Graphics/SVG/1.1/DTD/svg11.dtd">
<svg width="360pt" height="398pt" viewBox="0 0 360 398" version="1.1" xmlns="http://www.w3.org/2000/svg">
<g id="#ffffffff">
<path fill="#ffffff" opacity="1.00" d=" M 151.02 17.69 C 157.17 6.91 169.50 -0.29 182.02 0.86 C 196.31 1.53 209.02 13.06 211.67 27.02 C 213.05 34.37 212.27 42.26 208.81 48.96 C 204.02 58.28 194.71 65.40 184.19 66.64 C 176.98 67.72 169.58 65.99 163.31 62.37 C 163.32 96.59 163.31 130.81 163.32 165.03 C 163.30 171.16 164.05 177.32 165.94 183.17 C 169.79 195.45 178.29 205.78 188.35 213.59 C 200.43 223.16 215.18 229.18 230.43 231.19 C 251.45 233.98 273.76 230.98 292.16 220.01 C 304.37 212.69 315.42 202.56 321.51 189.49 C 324.93 182.20 326.58 174.13 326.56 166.09 C 326.57 131.53 326.54 96.98 326.58 62.42 C 320.61 65.75 313.72 67.60 306.87 66.77 C 296.16 65.92 286.53 58.95 281.45 49.64 C 277.59 42.53 276.75 34.02 278.43 26.17 C 280.25 17.80 285.72 10.47 292.82 5.79 C 300.30 0.90 309.87 -0.40 318.48 1.81 C 327.08 4.08 334.45 10.06 338.91 17.71 C 345.75 16.06 353.19 19.14 356.82 25.16 C 359.81 29.49 359.32 34.96 359.32 39.95 C 359.30 81.96 359.33 123.98 359.30 165.99 C 359.32 178.29 356.92 190.64 351.87 201.88 C 343.30 220.96 328.11 236.57 310.49 247.56 C 295.63 256.77 278.61 262.12 261.32 264.27 C 261.31 275.18 261.32 286.09 261.31 297.01 C 261.50 311.40 258.44 325.92 251.76 338.72 C 240.79 359.59 222.09 375.80 201.03 385.97 C 176.94 397.40 149.20 399.82 123.08 395.48 C 94.23 390.66 67.52 374.39 49.91 351.06 C 38.67 336.19 32.62 317.62 32.65 299.00 C 32.59 232.40 32.64 165.79 32.62 99.18 C 14.12 92.49 0.34 74.16 0.00 54.34 L 0.00 49.78 C 0.49 28.56 16.57 8.92 37.19 4.09 C 48.71 1.50 61.28 2.61 71.77 8.23 C 80.42 12.91 87.66 20.19 92.36 28.82 C 97.97 39.21 99.24 51.62 96.91 63.12 C 93.50 79.50 81.04 93.45 65.38 99.17 C 65.37 165.46 65.38 231.75 65.38 298.04 C 65.28 308.34 68.05 318.68 73.51 327.44 C 80.33 338.42 90.49 347.01 101.67 353.32 C 120.26 363.70 142.46 366.25 163.31 363.14 C 182.65 360.24 201.00 350.66 214.04 336.04 C 222.91 326.21 228.36 313.26 228.54 299.97 C 228.59 288.05 228.56 276.14 228.55 264.23 C 208.18 261.79 188.20 254.62 171.68 242.32 C 156.13 230.75 142.90 215.38 136.08 197.05 C 132.36 187.15 130.62 176.55 130.63 165.98 C 130.61 122.98 130.65 79.97 130.61 36.97 C 130.39 32.45 130.94 27.61 133.91 23.99 C 137.71 18.63 144.66 16.22 151.02 17.69 M 44.33 36.58 C 39.25 38.18 35.09 42.41 33.44 47.47 C 30.20 56.73 37.19 67.59 46.84 68.74 C 56.74 70.39 66.34 60.96 65.24 51.07 C 64.70 41.18 53.89 33.31 44.33 36.58 Z" />
</g>
</svg>
