<?xml version="1.0" encoding="UTF-8" ?>
<!DOCTYPE svg PUBLIC "-//W3C//DTD SVG 1.1//EN" "http://www.w3.org/Graphics/SVG/1.1/DTD/svg11.dtd">
<svg width="659pt" height="429pt" viewBox="0 0 659 429" version="1.1" xmlns="http://www.w3.org/2000/svg">
<g id="#ffffffff">
<path fill="#ffffff" opacity="1.00" d=" M 43.40 3.42 C 50.84 -0.31 60.23 0.22 67.16 4.84 C 73.82 9.13 77.99 16.95 77.88 24.87 C 77.88 88.56 77.88 152.25 77.88 215.93 C 245.40 215.94 412.92 215.94 580.44 215.93 C 580.44 191.94 580.43 167.94 580.44 143.94 C 580.32 135.37 585.28 127.02 592.82 122.98 C 600.07 118.93 609.46 119.13 616.53 123.49 C 623.62 127.70 628.17 135.79 628.06 144.05 C 628.07 204.31 628.06 264.57 628.06 324.82 C 637.24 329.51 645.14 336.70 650.44 345.57 C 658.27 358.41 660.33 374.58 656.02 388.99 C 651.87 403.30 641.52 415.63 628.21 422.31 C 615.42 428.85 600.01 429.95 586.40 425.38 C 572.37 420.77 560.47 410.17 554.20 396.80 C 547.74 383.25 547.33 367.00 553.04 353.13 C 558.11 340.53 568.10 330.12 580.30 324.22 C 580.32 309.90 580.31 295.58 580.31 281.25 C 412.83 281.25 245.36 281.25 77.88 281.25 C 77.88 295.57 77.87 309.89 77.88 324.20 C 93.40 331.62 105.15 346.53 108.23 363.50 C 111.15 378.53 107.32 394.69 97.91 406.77 C 88.29 419.44 72.91 427.52 56.99 428.11 C 42.09 428.86 27.05 423.09 16.44 412.61 C 6.62 403.12 0.65 389.84 0.00 376.20 L 0.00 371.21 C 0.71 351.78 12.74 333.46 30.12 324.83 C 30.14 224.87 30.09 124.91 30.14 24.95 C 30.01 16.01 35.33 7.28 43.40 3.42 M 35.97 397.88 C 48.36 407.90 68.25 405.62 78.13 393.15 C 87.62 382.21 87.43 364.64 77.90 353.78 C 77.88 357.80 78.10 361.93 76.76 365.79 C 74.18 374.16 66.61 380.73 57.94 382.02 C 49.19 383.54 39.78 379.74 34.65 372.47 C 30.94 367.54 29.84 361.22 30.10 355.18 C 20.02 367.95 22.79 388.33 35.97 397.88 M 573.91 380.96 C 576.89 393.76 588.92 403.70 602.07 404.17 C 615.40 405.06 628.53 396.10 632.64 383.40 C 635.93 373.97 634.09 363.08 628.12 355.10 C 628.95 364.52 624.63 374.46 616.18 379.13 C 606.56 384.90 593.05 382.66 585.95 373.92 C 581.08 368.47 579.83 360.88 580.29 353.80 C 574.06 361.20 571.46 371.56 573.91 380.96 Z" />
<path fill="#ffffff" opacity="1.00" d=" M 203.55 45.82 C 215.76 43.64 228.80 46.64 238.76 54.06 C 248.71 61.32 255.52 72.73 257.05 84.97 C 258.67 96.90 255.34 109.41 247.93 118.91 C 239.74 129.66 226.61 136.44 213.08 136.78 C 199.47 137.35 185.81 131.38 176.92 121.06 C 167.67 110.61 163.75 95.81 166.49 82.14 C 169.83 63.93 185.28 48.80 203.55 45.82 Z" />
<path fill="#ffffff" opacity="1.00" d=" M 282.88 119.91 C 290.28 113.53 300.24 110.31 309.98 111.00 C 353.84 113.34 397.75 119.41 439.80 132.43 C 470.41 142.08 500.47 155.21 525.79 175.26 C 531.62 179.85 528.71 190.29 521.39 191.34 C 512.28 191.73 503.13 191.39 494.01 191.50 C 419.28 191.50 344.55 191.51 269.81 191.50 C 269.82 177.01 269.79 162.51 269.83 148.02 C 269.87 137.35 274.77 126.84 282.88 119.91 Z" />
<path fill="#ffffff" opacity="1.00" d=" M 122.23 141.30 C 125.40 139.98 128.95 140.06 132.24 140.90 C 158.18 146.67 184.13 152.40 210.07 158.15 C 213.70 158.96 217.44 159.58 220.76 161.33 C 227.26 164.59 232.15 170.83 233.78 177.91 C 234.75 181.91 234.37 186.05 234.43 190.12 C 194.04 190.13 153.64 190.13 113.25 190.12 C 113.26 178.39 113.22 166.65 113.26 154.92 C 113.11 149.11 116.75 143.36 122.23 141.30 Z" />
</g>
</svg>
