<?xml version="1.0" encoding="UTF-8" ?>
<!DOCTYPE svg PUBLIC "-//W3C//DTD SVG 1.1//EN" "http://www.w3.org/Graphics/SVG/1.1/DTD/svg11.dtd">
<svg width="367pt" height="527pt" viewBox="0 0 367 527" version="1.1" xmlns="http://www.w3.org/2000/svg">
<g id="#ffffffff">
<path fill="#ffffff" opacity="1.00" d=" M 115.92 7.12 C 117.99 3.10 122.44 0.53 126.95 0.69 C 164.65 0.68 202.36 0.68 240.06 0.69 C 244.56 0.54 248.97 3.11 251.05 7.10 C 253.08 10.68 252.41 14.94 252.50 18.87 C 282.03 18.93 311.56 18.77 341.09 18.95 C 355.03 19.31 367.00 31.90 367.00 45.79 L 367.00 499.79 C 366.68 510.50 359.60 520.63 349.57 524.43 C 344.34 526.63 338.56 526.33 333.01 526.32 C 234.33 526.31 135.65 526.32 36.97 526.31 C 30.20 526.20 23.09 527.03 16.73 524.15 C 7.29 520.28 0.64 510.77 0.00 500.61 L 0.00 44.89 C 0.49 31.32 12.30 19.30 25.93 18.95 C 55.45 18.77 84.98 18.93 114.50 18.87 C 114.60 14.95 113.90 10.70 115.92 7.12 M 30.38 495.68 C 132.46 495.69 234.54 495.69 336.62 495.68 C 336.62 346.96 336.63 198.23 336.62 49.50 C 308.59 49.50 280.55 49.50 252.52 49.50 C 252.47 52.28 252.74 55.20 251.60 57.82 C 249.80 62.41 244.99 65.61 240.05 65.38 C 202.33 65.37 164.62 65.38 126.91 65.38 C 121.98 65.59 117.19 62.41 115.39 57.83 C 114.23 55.21 114.52 52.29 114.48 49.50 C 86.45 49.50 58.42 49.50 30.38 49.50 C 30.37 198.23 30.38 346.96 30.38 495.68 Z" />
<path fill="#ffffff" opacity="1.00" d=" M 164.75 110.63 C 177.23 110.62 189.71 110.62 202.19 110.63 C 202.19 126.58 202.18 142.54 202.19 158.50 C 218.05 158.50 233.90 158.50 249.75 158.50 C 249.75 171.10 249.75 183.71 249.75 196.31 C 233.90 196.32 218.04 196.31 202.19 196.31 C 202.18 212.27 202.19 228.23 202.19 244.19 C 189.71 244.19 177.23 244.19 164.75 244.19 C 164.74 228.23 164.75 212.27 164.75 196.31 C 148.92 196.31 133.08 196.31 117.25 196.31 C 117.24 183.71 117.25 171.10 117.25 158.50 C 133.08 158.50 148.91 158.50 164.75 158.50 C 164.76 142.54 164.74 126.58 164.75 110.63 Z" />
<path fill="#ffffff" opacity="1.00" d=" M 78.31 289.94 C 148.42 289.94 218.52 289.93 288.63 289.94 C 288.63 304.23 288.63 318.52 288.63 332.81 C 218.52 332.82 148.42 332.82 78.31 332.81 C 78.31 318.52 78.31 304.23 78.31 289.94 Z" />
<path fill="#ffffff" opacity="1.00" d=" M 78.31 420.44 C 78.31 406.15 78.31 391.85 78.32 377.56 C 148.42 377.56 218.52 377.56 288.62 377.56 C 288.63 391.85 288.63 406.15 288.62 420.44 C 218.52 420.44 148.42 420.44 78.31 420.44 Z" />
</g>
</svg>
