<?xml version="1.0" encoding="UTF-8" ?>
<!DOCTYPE svg PUBLIC "-//W3C//DTD SVG 1.1//EN" "http://www.w3.org/Graphics/SVG/1.1/DTD/svg11.dtd">
<svg width="543pt" height="533pt" viewBox="0 0 543 533" version="1.1" xmlns="http://www.w3.org/2000/svg">
<g id="#8ab371d4">
<path fill="#8ab371" opacity="0.83" d=" M 195.64 0.00 L 196.24 0.00 C 198.02 8.15 198.86 16.94 195.77 24.89 C 193.10 31.50 187.17 35.99 181.64 40.12 C 186.65 37.70 192.23 36.64 197.21 34.23 C 201.80 29.72 206.62 24.81 213.14 23.34 C 219.96 22.16 226.76 24.30 233.15 26.48 C 228.31 32.09 221.95 36.46 214.81 38.52 C 208.70 39.96 202.42 38.29 196.84 35.76 C 189.56 38.32 182.44 41.32 175.41 44.52 C 182.94 43.32 190.96 42.10 198.31 44.78 C 206.54 48.24 212.37 55.53 216.91 62.97 C 209.46 65.35 201.08 66.44 193.65 63.45 C 185.25 59.69 178.22 53.25 173.13 45.64 C 162.28 50.90 151.92 57.10 141.88 63.77 C 148.87 61.34 156.38 59.11 163.83 60.52 C 172.53 62.68 179.65 68.77 185.35 75.45 C 178.02 79.23 169.42 82.05 161.18 79.80 C 152.59 77.41 144.83 72.47 138.63 66.11 C 128.82 73.17 119.54 80.93 110.64 89.10 C 117.53 85.50 124.97 81.60 132.99 82.34 C 141.64 83.36 149.34 88.03 155.99 93.41 C 149.45 98.46 141.53 102.63 133.03 102.09 C 123.76 101.39 114.82 97.74 107.34 92.26 C 98.54 100.72 90.81 110.23 83.71 120.15 C 89.69 115.43 96.16 110.53 103.92 109.43 C 113.12 108.51 122.10 111.99 130.01 116.39 C 124.03 123.02 116.17 128.85 106.95 129.37 C 98.07 129.80 89.12 127.83 81.12 123.96 C 74.75 133.45 69.34 143.53 64.23 153.74 C 69.02 148.70 74.19 143.39 81.07 141.40 C 90.08 138.88 99.61 140.85 108.28 143.79 C 103.55 151.33 96.90 158.48 88.00 160.78 C 79.25 162.85 69.99 162.57 61.30 160.34 C 56.95 170.43 53.26 180.79 50.04 191.29 C 54.01 185.35 58.56 179.16 65.40 176.38 C 73.73 172.93 83.03 173.32 91.78 174.56 C 88.45 182.79 83.23 190.95 75.01 194.97 C 66.58 198.83 57.14 200.25 47.92 199.62 C 45.17 210.32 43.38 221.23 42.02 232.18 C 44.89 225.55 48.31 218.59 54.54 214.50 C 62.36 209.42 71.91 207.94 81.07 207.87 C 79.12 216.63 75.41 225.63 67.99 231.13 C 60.17 236.67 50.76 239.70 41.28 240.73 C 40.53 251.63 40.69 262.58 41.24 273.49 C 43.06 266.38 45.11 258.79 50.56 253.53 C 57.52 246.92 66.93 243.69 76.18 241.87 C 75.96 251.19 73.64 261.09 66.95 267.96 C 60.08 274.65 51.41 279.37 42.19 281.95 C 43.28 291.93 45.42 301.74 47.64 311.52 C 48.37 304.61 49.14 297.23 53.43 291.47 C 59.24 283.56 68.17 278.71 77.12 275.18 C 78.52 284.42 77.93 294.58 72.71 302.62 C 67.10 310.70 59.19 317.05 50.38 321.37 C 53.07 331.06 56.77 340.41 60.61 349.69 C 59.95 342.43 59.49 334.64 62.94 327.96 C 67.45 319.17 75.40 312.70 83.74 307.72 C 86.72 316.79 87.98 327.07 84.12 336.09 C 79.90 345.14 73.16 352.93 65.08 358.77 C 69.34 367.25 74.34 375.31 79.45 383.29 C 77.90 376.73 76.31 369.73 78.37 363.08 C 81.24 353.28 88.20 345.28 95.78 338.72 C 100.28 347.13 103.27 356.93 101.33 366.49 C 98.82 376.40 93.46 385.48 86.49 392.92 C 92.00 400.26 98.11 407.12 104.26 413.92 C 101.53 407.65 99.07 400.86 100.17 393.90 C 101.53 383.89 107.01 375.00 113.21 367.23 C 119.20 374.84 123.94 384.13 123.73 394.04 C 122.97 404.39 119.29 414.43 113.65 423.11 C 120.19 429.27 127.15 434.94 134.19 440.50 C 130.77 435.17 127.33 429.47 126.91 422.99 C 126.06 412.20 130.10 401.73 135.20 392.43 C 142.71 399.07 149.16 407.77 150.57 417.93 C 151.57 428.32 149.54 438.86 145.54 448.46 C 153.27 453.59 161.33 458.20 169.52 462.56 C 164.43 457.38 159.44 451.53 157.91 444.23 C 155.71 433.83 157.79 423.08 161.14 413.17 C 170.40 418.89 179.04 427.17 181.62 438.09 C 183.80 447.90 183.60 458.21 181.37 468.00 C 189.51 471.53 197.94 474.29 206.44 476.81 C 200.90 472.72 195.31 468.10 192.54 461.61 C 188.13 451.44 188.43 439.94 190.07 429.19 C 199.73 433.10 209.21 439.22 214.13 448.71 C 218.71 458.27 220.40 468.98 220.06 479.52 C 237.81 482.83 255.09 488.46 271.56 495.84 C 287.98 488.41 305.25 482.86 322.97 479.51 C 322.64 468.57 324.44 457.35 329.52 447.57 C 334.63 438.71 343.67 432.98 352.92 429.18 C 354.60 439.68 354.88 450.90 350.83 460.92 C 348.15 467.69 342.42 472.56 336.70 476.75 C 345.19 474.30 353.58 471.47 361.72 468.01 C 359.36 458.00 359.20 447.42 361.59 437.41 C 364.36 426.79 372.84 418.81 381.86 413.17 C 385.27 422.83 387.16 433.33 385.31 443.53 C 383.90 451.08 378.86 457.23 373.56 462.51 C 381.77 458.21 389.79 453.55 397.54 448.45 C 393.45 438.89 391.52 428.32 392.48 417.94 C 393.85 407.77 400.34 399.10 407.81 392.43 C 412.98 401.69 416.97 412.18 416.13 422.96 C 415.75 429.44 412.32 435.16 408.86 440.46 C 415.92 434.94 422.85 429.23 429.41 423.11 C 423.76 414.42 420.05 404.36 419.33 393.98 C 419.08 384.09 423.88 374.87 429.79 367.23 C 436.44 375.46 442.34 385.13 443.04 395.94 C 443.56 402.23 441.24 408.23 438.80 413.88 C 444.99 407.12 451.02 400.20 456.59 392.92 C 449.74 385.72 444.56 376.88 441.90 367.28 C 439.58 357.50 442.67 347.39 447.22 338.72 C 454.88 345.24 461.82 353.32 464.70 363.14 C 466.76 369.75 465.20 376.73 463.57 383.25 C 468.76 375.32 473.68 367.22 477.98 358.77 C 469.91 352.94 463.16 345.17 458.94 336.12 C 455.06 327.10 456.35 316.82 459.26 307.72 C 467.43 312.53 475.13 318.80 479.74 327.23 C 483.56 334.06 483.16 342.21 482.44 349.74 C 486.27 340.44 489.94 331.06 492.70 321.37 C 484.10 317.19 476.40 311.03 470.78 303.26 C 465.12 295.16 464.55 284.68 465.88 275.18 C 475.04 278.74 484.17 283.76 489.97 291.95 C 493.94 297.65 494.80 304.77 495.31 311.52 C 497.73 301.77 499.70 291.91 500.87 281.94 C 491.63 279.38 482.95 274.63 476.08 267.93 C 469.39 261.07 467.11 251.18 466.82 241.88 C 476.09 243.65 485.50 246.91 492.48 253.51 C 497.91 258.75 500.02 266.32 501.77 273.42 C 502.40 262.54 502.49 251.61 501.75 240.72 C 491.79 239.61 481.81 236.38 473.83 230.17 C 467.18 224.58 463.83 216.14 461.95 207.87 C 470.90 207.93 480.20 209.34 487.94 214.13 C 494.49 218.19 498.18 225.36 501.00 232.28 C 499.73 221.28 497.82 210.35 495.13 199.60 C 485.43 200.28 475.40 198.72 466.70 194.27 C 459.20 190.01 454.44 182.33 451.22 174.55 C 459.98 173.33 469.28 172.92 477.62 176.37 C 484.48 179.14 489.07 185.34 493.01 191.32 C 489.78 180.81 486.10 170.44 481.74 160.34 C 473.36 162.52 464.47 162.78 455.99 161.01 C 446.68 158.96 439.59 151.63 434.79 143.75 C 443.64 140.83 453.40 138.78 462.56 141.57 C 469.21 143.77 474.35 148.87 478.92 153.97 C 473.79 143.67 468.33 133.53 461.92 123.96 C 453.94 127.86 444.98 129.78 436.10 129.37 C 426.87 128.85 419.00 123.01 413.01 116.36 C 420.92 112.04 429.84 108.53 439.02 109.42 C 446.83 110.47 453.36 115.41 459.36 120.18 C 452.26 110.25 444.52 100.73 435.69 92.28 C 428.20 97.77 419.23 101.42 409.94 102.09 C 401.46 102.60 393.59 98.42 387.04 93.42 C 393.66 88.07 401.31 83.41 409.91 82.35 C 417.98 81.57 425.52 85.45 432.43 89.15 C 423.55 80.92 414.22 73.19 404.40 66.11 C 398.20 72.51 390.39 77.45 381.77 79.83 C 373.54 82.04 364.99 79.20 357.67 75.45 C 363.25 68.97 370.10 63.04 378.49 60.70 C 386.11 58.93 393.89 61.28 401.09 63.72 C 391.08 57.06 380.73 50.91 369.91 45.65 C 364.83 53.28 357.77 59.70 349.38 63.46 C 341.93 66.44 333.55 65.35 326.10 62.94 C 330.82 55.37 336.81 47.80 345.41 44.53 C 352.63 42.21 360.35 43.34 367.68 44.53 C 360.63 41.32 353.49 38.32 346.17 35.77 C 340.58 38.33 334.24 39.99 328.11 38.48 C 321.01 36.41 314.71 32.05 309.87 26.49 C 316.28 24.32 323.08 22.15 329.91 23.34 C 335.86 24.75 340.63 28.90 344.73 33.24 C 346.08 34.85 348.18 35.33 350.07 35.97 C 353.96 37.16 357.76 38.62 361.51 40.20 C 356.10 36.14 350.35 31.82 347.51 25.47 C 344.15 17.40 345.04 8.35 346.75 0.00 L 347.33 0.00 C 354.08 3.34 360.53 8.23 363.79 15.21 C 367.41 23.68 367.71 33.19 366.52 42.21 C 376.88 46.81 387.02 51.97 396.56 58.10 C 391.88 53.06 386.98 47.58 385.58 40.62 C 384.07 32.07 386.42 23.43 389.68 15.56 C 396.40 20.46 402.58 27.09 404.28 35.49 C 405.76 44.19 404.84 53.21 401.96 61.53 C 411.22 67.65 420.16 74.31 428.45 81.71 C 424.89 76.08 421.26 69.94 421.28 63.07 C 421.29 54.32 425.23 46.16 429.82 38.91 C 435.53 44.92 440.56 52.41 440.91 60.95 C 441.09 69.95 438.60 78.91 434.27 86.77 C 442.07 93.70 449.33 101.26 455.70 109.53 C 453.68 104.11 451.69 98.33 452.66 92.46 C 454.16 83.48 459.58 75.75 465.65 69.21 C 470.46 76.50 474.15 85.18 472.74 94.08 C 471.22 102.69 467.39 110.83 461.96 117.66 C 468.24 126.56 474.17 135.77 479.02 145.54 C 477.87 139.18 476.69 132.41 479.05 126.18 C 482.24 117.72 488.87 111.11 495.95 105.76 C 499.37 113.38 501.28 122.04 499.27 130.30 C 496.43 139.52 490.62 147.65 483.43 154.01 C 488.03 163.97 492.28 174.13 495.48 184.64 C 495.22 177.71 495.40 170.25 499.19 164.19 C 503.92 156.53 511.60 151.29 519.46 147.22 C 521.52 155.90 522.14 165.65 517.79 173.75 C 513.20 181.91 506.30 188.67 498.30 193.50 C 501.04 203.61 503.46 213.83 504.87 224.23 C 505.86 217.75 507.38 210.94 511.90 205.93 C 518.03 199.06 526.69 195.06 535.36 192.42 C 535.94 201.56 534.76 211.52 528.87 218.90 C 522.92 226.07 515.01 231.51 506.38 234.98 C 507.08 244.84 508.06 254.72 507.45 264.61 C 509.48 258.87 512.08 252.98 516.95 249.09 C 524.30 243.07 533.81 240.75 543.00 239.36 L 543.00 241.24 C 541.85 249.72 538.93 258.47 532.53 264.45 C 525.28 270.78 516.28 274.91 506.92 276.98 C 506.04 286.48 504.85 295.97 502.68 305.27 C 505.74 300.05 509.22 294.69 514.63 291.63 C 523.15 286.71 533.34 285.82 542.99 286.31 C 540.67 295.45 535.82 304.54 527.69 309.73 C 519.27 314.74 509.52 317.23 499.78 317.65 C 497.47 326.59 494.88 335.48 491.34 344.02 C 495.23 339.31 499.77 334.74 505.69 332.72 C 515.12 329.43 525.40 330.39 534.96 332.58 C 530.78 340.96 524.82 349.13 516.03 353.03 C 506.62 356.86 496.21 357.59 486.19 356.42 C 482.13 364.95 477.75 373.33 472.60 381.26 C 477.36 377.22 482.64 373.29 488.95 372.20 C 499.13 370.34 509.52 373.16 518.87 377.13 C 513.28 384.80 505.87 391.85 496.45 394.27 C 486.16 396.47 475.34 395.51 465.38 392.27 C 459.77 400.08 453.86 407.71 447.28 414.73 C 453.28 411.22 459.90 407.94 467.04 408.27 C 477.15 408.69 486.63 413.08 494.96 418.57 C 487.91 425.34 479.09 431.19 469.07 431.81 C 458.40 432.11 447.77 429.22 438.39 424.21 C 431.69 430.90 424.69 437.32 417.21 443.13 C 423.84 440.72 431.02 438.73 438.10 440.31 C 448.14 442.49 456.85 448.58 464.18 455.57 C 455.97 461.07 446.18 465.33 436.10 464.30 C 425.28 462.80 415.07 457.97 406.50 451.28 C 399.23 456.43 391.81 461.43 383.90 465.56 C 390.37 464.61 397.23 463.97 403.43 466.51 C 413.31 470.43 421.13 478.19 427.34 486.62 C 417.85 490.81 406.88 493.42 396.72 490.16 C 386.68 486.66 377.71 480.39 370.56 472.56 C 362.60 476.32 354.47 479.78 346.01 482.23 C 352.66 482.25 359.66 483.03 365.39 486.71 C 374.55 492.40 380.92 501.57 385.71 511.05 C 375.57 513.55 364.25 514.19 354.67 509.39 C 344.86 504.01 336.69 495.85 330.83 486.35 C 314.16 489.39 297.80 494.22 282.31 501.14 C 294.51 507.69 306.36 515.31 315.95 525.39 C 313.08 527.91 310.30 530.55 307.36 533.00 L 307.12 533.00 C 297.06 522.01 284.57 513.57 271.58 506.41 C 258.52 513.50 246.05 522.03 235.94 533.00 L 235.66 533.00 C 232.76 530.51 229.98 527.89 227.09 525.39 C 236.72 515.31 248.55 507.63 260.81 501.14 C 245.29 494.26 228.93 489.36 212.22 486.36 C 206.50 495.65 198.57 503.63 189.07 509.03 C 179.37 514.24 167.70 513.60 157.32 511.04 C 162.15 501.60 168.48 492.42 177.63 486.72 C 183.36 483.03 190.35 482.24 197.02 482.26 C 188.59 479.72 180.44 476.33 172.50 472.56 C 165.51 480.24 156.74 486.38 146.96 489.95 C 136.64 493.53 125.38 490.88 115.69 486.61 C 121.92 478.20 129.72 470.43 139.60 466.51 C 145.82 463.96 152.70 464.60 159.17 465.60 C 151.29 461.38 143.81 456.43 136.53 451.26 C 127.99 458.03 117.71 462.81 106.88 464.31 C 96.80 465.30 87.05 461.04 78.84 455.55 C 86.20 448.61 94.88 442.49 104.92 440.31 C 112.07 438.72 119.35 440.72 126.02 443.26 C 118.48 437.39 111.41 430.94 104.65 424.19 C 95.59 429.11 85.32 431.89 74.99 431.85 C 64.58 431.59 55.37 425.54 48.08 418.56 C 56.40 413.10 65.84 408.71 75.93 408.27 C 83.13 407.92 89.81 411.23 95.83 414.81 C 89.27 407.72 83.28 400.12 77.70 392.24 C 67.71 395.54 56.86 396.46 46.54 394.26 C 37.13 391.81 29.77 384.74 24.15 377.12 C 33.50 373.20 43.85 370.34 54.03 372.19 C 60.38 373.27 65.69 377.23 70.46 381.32 C 65.39 373.32 60.88 364.98 56.89 356.40 C 46.86 357.61 36.43 356.86 27.02 353.02 C 18.22 349.11 12.27 340.95 8.10 332.57 C 17.65 330.41 27.91 329.42 37.33 332.72 C 43.25 334.74 47.80 339.30 51.69 344.02 C 48.23 335.45 45.53 326.59 43.30 317.62 C 33.51 317.27 23.73 314.71 15.30 309.67 C 7.18 304.48 2.45 295.39 0.01 286.31 C 9.67 285.81 19.87 286.70 28.40 291.62 C 33.83 294.71 37.35 300.09 40.37 305.38 C 38.26 296.03 36.98 286.51 36.17 276.96 C 26.80 274.96 17.82 270.77 10.57 264.48 C 4.17 258.62 1.43 249.96 0.00 241.65 L 0.00 239.36 C 9.19 240.73 18.69 243.04 26.03 249.05 C 30.95 252.94 33.51 258.87 35.61 264.60 C 35.11 254.71 35.86 244.81 36.71 234.96 C 28.05 231.54 20.15 226.06 14.18 218.89 C 8.27 211.51 7.17 201.57 7.66 192.43 C 16.33 195.04 24.98 199.04 31.11 205.90 C 35.64 210.92 37.19 217.74 38.16 224.24 C 39.64 213.85 41.94 203.60 44.80 193.51 C 36.76 188.68 29.85 181.89 25.24 173.70 C 20.89 165.60 21.56 155.90 23.54 147.22 C 31.43 151.26 39.09 156.54 43.85 164.19 C 47.64 170.25 47.81 177.71 47.55 184.63 C 50.83 174.14 54.97 163.94 59.67 154.01 C 52.62 147.86 47.01 139.96 44.02 131.08 C 41.54 122.63 43.65 113.64 47.05 105.76 C 54.11 111.02 60.64 117.58 63.88 125.91 C 66.34 132.19 65.18 139.05 64.06 145.48 C 68.91 135.73 74.82 126.55 81.09 117.66 C 75.69 110.84 71.84 102.73 70.31 94.14 C 68.86 85.24 72.62 76.54 77.35 69.22 C 83.30 75.56 88.58 83.05 90.24 91.74 C 91.49 97.80 89.45 103.86 87.36 109.48 C 93.75 101.25 100.98 93.68 108.79 86.78 C 104.44 78.92 101.97 69.94 102.15 60.93 C 102.50 52.40 107.55 44.96 113.19 38.90 C 117.66 45.83 121.36 53.62 121.77 61.97 C 122.14 69.21 118.39 75.77 114.61 81.66 C 122.93 74.28 131.86 67.63 141.12 61.49 C 138.20 53.27 137.33 44.31 138.75 35.70 C 140.34 27.20 146.61 20.55 153.32 15.55 C 156.62 23.38 158.96 32.02 157.48 40.54 C 156.12 47.49 151.24 52.94 146.62 58.01 C 156.13 51.92 166.21 46.75 176.54 42.22 C 175.29 33.51 175.66 24.38 178.89 16.12 C 181.91 8.67 188.68 3.55 195.64 0.00 Z" />
</g>
</svg>
